<svg id="star" width="18" height="18" viewBox="0 0 18 18" fill="none" xmlns="http://www.w3.org/2000/svg">
<path d="M15.9627 6.20694L11.4996 5.55831L9.50447 1.51358C9.44997 1.40284 9.36032 1.31319 9.24958 1.2587C8.97185 1.12159 8.63435 1.23585 8.49548 1.51358L6.50036 5.55831L2.03728 6.20694C1.91423 6.22452 1.80173 6.28253 1.7156 6.37042C1.61147 6.47744 1.55409 6.62143 1.55606 6.77074C1.55804 6.92006 1.61922 7.06247 1.72614 7.16671L4.95525 10.3149L4.19236 14.7605C4.17446 14.8639 4.18591 14.9702 4.22539 15.0675C4.26487 15.1647 4.3308 15.2489 4.41572 15.3106C4.50063 15.3723 4.60113 15.4089 4.70581 15.4164C4.81049 15.4239 4.91517 15.4018 5.00798 15.3528L8.99997 13.254L12.992 15.3528C13.1009 15.4108 13.2275 15.4302 13.3488 15.4091C13.6547 15.3564 13.8603 15.0663 13.8076 14.7605L13.0447 10.3149L16.2738 7.16671C16.3617 7.08057 16.4197 6.96807 16.4373 6.84503C16.4847 6.53741 16.2703 6.25264 15.9627 6.20694Z" fill="#6cb981"/>
</svg>
